{
  "accessors": [
    {
      "bufferView": 2,
      "componentType": 5126,
      "count": 405,
      "max": [
        586.69647216796875,
        2232.6494140625,
        35.661075592041016
      ],
      "min": [
        -598.8316650390625,
        4.8446044921875,
        -35.66107177734375
      ],
      "type": "VEC3"
    },
    {
      "bufferView": 2,
      "byteOffset": 4860,
      "componentType": 5126,
      "count": 405,
      "max": [
        1,
        1,
        1
      ],
      "min": [
        -1,
        -1,
        -1
      ],
      "type": "VEC3"
    },
    {
      "bufferView": 1,
      "componentType": 5126,
      "count": 405,
      "max": [
        0.98710459470748901,
        0.80300843715667725
      ],
      "min": [
        0.027585089206695557,
        0.021785028278827667
      ],
      "type": "VEC2"
    },
    {
      "bufferView": 0,
      "componentType": 5125,
      "count": 1689,
      "max": [
        404
      ],
      "min": [
        0
      ],
      "type": "SCALAR"
    },
    {
      "bufferView": 2,
      "byteOffset": 9720,
      "componentType": 5126,
      "count": 1293,
      "max": [
        527.61126708984375,
        2179.00732421875,
        134.41213989257812
      ],
      "min": [
        -527.61126708984375,
        56.646728515625,
        -148.13327026367188
      ],
      "type": "VEC3"
    },
    {
      "bufferView": 2,
      "byteOffset": 25236,
      "componentType": 5126,
      "count": 1293,
      "max": [
        1,
        1,
        1
      ],
      "min": [
        -1,
        -1,
        -1
      ],
      "type": "VEC3"
    },
    {
      "bufferView": 1,
      "byteOffset": 3240,
      "componentType": 5126,
      "count": 1293,
      "max": [
        0.98444020748138428,
        0.98616254329681396
      ],
      "min": [
        0.018355369567871094,
        0.014272905886173248
      ],
      "type": "VEC2"
    },
    {
      "bufferView": 0,
      "byteOffset": 6756,
      "componentType": 5125,
      "count": 6129,
      "max": [
        1292
      ],
      "min": [
        0
      ],
      "type": "SCALAR"
    }
  ],
  "asset": {
    "extras": {
      "author": "ThreeDeeCreation (https://sketchfab.com/ThreeDeeCreation)",
      "license": "CC-BY-4.0 (http://creativecommons.org/licenses/by/4.0/)",
      "source": "https://sketchfab.com/3d-models/door-aa6c1be78d0e4b499357e22a60b13991",
      "title": "Door"
    },
    "generator": "Sketchfab-8.34.0",
    "version": "2.0"
  },
  "bufferViews": [
    {
      "buffer": 0,
      "byteLength": 31272,
      "byteOffset": 0,
      "name": "floatBufferViews",
      "target": 34963
    },
    {
      "buffer": 0,
      "byteLength": 13584,
      "byteOffset": 31272,
      "byteStride": 8,
      "name": "floatBufferViews",
      "target": 34962
    },
    {
      "buffer": 0,
      "byteLength": 40752,
      "byteOffset": 44856,
      "byteStride": 12,
      "name": "floatBufferViews",
      "target": 34962
    }
  ],
  "buffers": [
    {
      "byteLength": 85608,
      "uri": "scene.bin"
    }
  ],
  "materials": [
    {
      "doubleSided": true,
      "emissiveFactor": [
        0,
        0,
        0
      ],
      "name": "DorFrameColor",
      "pbrMetallicRoughness": {
        "baseColorFactor": [
          0.50887099999999996,
          0.50887099999999996,
          0.50887099999999996,
          1
        ],
        "metallicFactor": 0,
        "roughnessFactor": 0.92074838162494832
      }
    },
    {
      "doubleSided": true,
      "emissiveFactor": [
        0,
        0,
        0
      ],
      "name": "DoorColor",
      "pbrMetallicRoughness": {
        "baseColorFactor": [
          0.75295400000000001,
          0.75295400000000001,
          0.75295400000000001,
          1
        ],
        "metallicFactor": 0,
        "roughnessFactor": 0.92074838162494832
      }
    }
  ],
  "meshes": [
    {
      "name": "doorFrame_DorFrameColor_0",
      "primitives": [
        {
          "attributes": {
            "NORMAL": 1,
            "POSITION": 0,
            "TEXCOORD_0": 2
          },
          "indices": 3,
          "material": 0,
          "mode": 4
        }
      ]
    },
    {
      "name": "door_DoorColor_0",
      "primitives": [
        {
          "attributes": {
            "NORMAL": 5,
            "POSITION": 4,
            "TEXCOORD_0": 6
          },
          "indices": 7,
          "material": 1,
          "mode": 4
        }
      ]
    }
  ],
  "nodes": [
    {
      "children": [
        1
      ],
      "name": "RootNode (gltf orientation matrix)",
      "rotation": [
        -0.70710678118654746,
        -0,
        -0,
        0.70710678118654757
      ]
    },
    {
      "children": [
        2
      ],
      "name": "RootNode (model correction matrix)"
    },
    {
      "children": [
        3
      ],
      "matrix": [
        1,
        0,
        0,
        0,
        0,
        0,
        1,
        0,
        0,
        -1,
        0,
        0,
        0,
        0,
        0,
        1
      ],
      "name": "7d876a305c724e258d4768834cd685bd.fbx"
    },
    {
      "children": [
        4
      ],
      "name": "RootNode"
    },
    {
      "children": [
        5,
        7
      ],
      "name": "group_Door"
    },
    {
      "children": [
        6
      ],
      "name": "doorFrame"
    },
    {
      "mesh": 0,
      "name": "doorFrame_DorFrameColor_0"
    },
    {
      "children": [
        8
      ],
      "name": "door"
    },
    {
      "mesh": 1,
      "name": "door_DoorColor_0"
    }
  ],
  "scene": 0,
  "scenes": [
    {
      "name": "OSG_Scene",
      "nodes": [
        0
      ]
    }
  ]
}

