{
  "accessors": [
    {
      "bufferView": 2,
      "componentType": 5126,
      "count": 212,
      "max": [
        0.51846599578857422,
        0.70060402154922485,
        0.62599599361419678
      ],
      "min": [
        -0.51846599578857422,
        -0.6040310263633728,
        -0.56532502174377441
      ],
      "type": "VEC3"
    },
    {
      "bufferView": 2,
      "byteOffset": 2544,
      "componentType": 5126,
      "count": 212,
      "max": [
        1,
        1,
        1
      ],
      "min": [
        -1,
        -0.99998438358306885,
        -0.99731278419494629
      ],
      "type": "VEC3"
    },
    {
      "bufferView": 3,
      "componentType": 5126,
      "count": 212,
      "max": [
        1,
        0.66707926988601685,
        0.99998444318771362,
        1
      ],
      "min": [
        -1,
        -0.66707926988601685,
        -0.99999916553497314,
        -1
      ],
      "type": "VEC4"
    },
    {
      "bufferView": 1,
      "componentType": 5126,
      "count": 212,
      "max": [
        0.97699397802352905,
        0.93716698884963989
      ],
      "min": [
        0.32416099309921265,
        0.019182400777935982
      ],
      "type": "VEC2"
    },
    {
      "bufferView": 0,
      "componentType": 5125,
      "count": 456,
      "max": [
        211
      ],
      "min": [
        0
      ],
      "type": "SCALAR"
    },
    {
      "bufferView": 2,
      "byteOffset": 5088,
      "componentType": 5126,
      "count": 342,
      "max": [
        0.50374501943588257,
        0.58169102668762207,
        0.54869997501373291
      ],
      "min": [
        -0.50374400615692139,
        -0.38146701455116272,
        -0.30987700819969177
      ],
      "type": "VEC3"
    },
    {
      "bufferView": 2,
      "byteOffset": 9192,
      "componentType": 5126,
      "count": 342,
      "max": [
        0.99999988079071045,
        0.99471276998519897,
        0.96541309356689453
      ],
      "min": [
        -0.99999988079071045,
        -0.99479132890701294,
        -0.96535509824752808
      ],
      "type": "VEC3"
    },
    {
      "bufferView": 3,
      "byteOffset": 3392,
      "componentType": 5126,
      "count": 342,
      "max": [
        0.022292396053671837,
        0.96606290340423584,
        -0.25829541683197021,
        1
      ],
      "min": [
        -0.022289613261818886,
        0.10179688036441803,
        -0.99480521678924561,
        -1
      ],
      "type": "VEC4"
    },
    {
      "bufferView": 1,
      "byteOffset": 1696,
      "componentType": 5126,
      "count": 342,
      "max": [
        0.97668999433517456,
        0.98735398054122925
      ],
      "min": [
        0.51440697908401489,
        0.95469701290130615
      ],
      "type": "VEC2"
    },
    {
      "bufferView": 0,
      "byteOffset": 1824,
      "componentType": 5125,
      "count": 1728,
      "max": [
        341
      ],
      "min": [
        0
      ],
      "type": "SCALAR"
    },
    {
      "bufferView": 2,
      "byteOffset": 13296,
      "componentType": 5126,
      "count": 726,
      "max": [
        0.44723200798034668,
        0.88190901279449463,
        -0.22251899540424347
      ],
      "min": [
        -0.4472309947013855,
        -0.73044902086257935,
        -0.62599599361419678
      ],
      "type": "VEC3"
    },
    {
      "bufferView": 2,
      "byteOffset": 22008,
      "componentType": 5126,
      "count": 726,
      "max": [
        0.97739356756210327,
        0.99558109045028687,
        0.99987560510635376
      ],
      "min": [
        -0.97739356756210327,
        -0.99586689472198486,
        -0.9999348521232605
      ],
      "type": "VEC3"
    },
    {
      "bufferView": 3,
      "byteOffset": 8864,
      "componentType": 5126,
      "count": 726,
      "max": [
        0.48616623878479004,
        -0.090824685990810394,
        0.99586689472198486,
        1
      ],
      "min": [
        -0.48615571856498718,
        -0.99994510412216187,
        -0.96254217624664307,
        -1
      ],
      "type": "VEC4"
    },
    {
      "bufferView": 1,
      "byteOffset": 4432,
      "componentType": 5126,
      "count": 726,
      "max": [
        0.37646499276161194,
        0.52086198329925537
      ],
      "min": [
        0.079546503722667694,
        0.31451499462127686
      ],
      "type": "VEC2"
    },
    {
      "bufferView": 0,
      "byteOffset": 8736,
      "componentType": 5125,
      "count": 3600,
      "max": [
        725
      ],
      "min": [
        0
      ],
      "type": "SCALAR"
    },
    {
      "bufferView": 2,
      "byteOffset": 30720,
      "componentType": 5126,
      "count": 56,
      "max": [
        0.40510299801826477,
        1,
        -0.32699000835418701
      ],
      "min": [
        -0.40510201454162598,
        0.70241701602935791,
        -0.45937898755073547
      ],
      "type": "VEC3"
    },
    {
      "bufferView": 2,
      "byteOffset": 31392,
      "componentType": 5126,
      "count": 56,
      "max": [
        0.87856388092041016,
        1,
        1
      ],
      "min": [
        -0.87856388092041016,
        -1,
        -1
      ],
      "type": "VEC3"
    },
    {
      "bufferView": 3,
      "byteOffset": 20480,
      "componentType": 5126,
      "count": 56,
      "max": [
        1,
        0.87856382131576538,
        0.33891218900680542,
        1
      ],
      "min": [
        -0.99999994039535522,
        -0.87856382131576538,
        -0.35659581422805786,
        1
      ],
      "type": "VEC4"
    },
    {
      "bufferView": 1,
      "byteOffset": 10240,
      "componentType": 5126,
      "count": 56,
      "max": [
        0.60458099842071533,
        0.80466097593307495
      ],
      "min": [
        0.27120301127433777,
        0.52285498380661011
      ],
      "type": "VEC2"
    },
    {
      "bufferView": 0,
      "byteOffset": 23136,
      "componentType": 5125,
      "count": 156,
      "max": [
        55
      ],
      "min": [
        0
      ],
      "type": "SCALAR"
    },
    {
      "bufferView": 2,
      "byteOffset": 32064,
      "componentType": 5126,
      "count": 468,
      "max": [
        0.46188399195671082,
        0.62405097484588623,
        0.51448500156402588
      ],
      "min": [
        -0.46188399195671082,
        -0.44403600692749023,
        -0.38618400692939758
      ],
      "type": "VEC3"
    },
    {
      "bufferView": 2,
      "byteOffset": 37680,
      "componentType": 5126,
      "count": 468,
      "max": [
        1,
        0.99922889471054077,
        0.97043526172637939
      ],
      "min": [
        -1,
        -1,
        -0.97987157106399536
      ],
      "type": "VEC3"
    },
    {
      "bufferView": 3,
      "byteOffset": 21376,
      "componentType": 5126,
      "count": 468,
      "max": [
        0.99957340955734253,
        0.11254831403493881,
        0.22422966361045837,
        1
      ],
      "min": [
        0,
        -0.11254832893610001,
        -0.22422969341278076,
        1
      ],
      "type": "VEC4"
    },
    {
      "bufferView": 1,
      "byteOffset": 10688,
      "componentType": 5126,
      "count": 468,
      "max": [
        0.51366102695465088,
        0.95042198896408081
      ],
      "min": [
        0.053639698773622513,
        0.014568700455129147
      ],
      "type": "VEC2"
    },
    {
      "bufferView": 0,
      "byteOffset": 23760,
      "componentType": 5125,
      "count": 1188,
      "max": [
        467
      ],
      "min": [
        0
      ],
      "type": "SCALAR"
    },
    {
      "bufferView": 2,
      "byteOffset": 43296,
      "componentType": 5126,
      "count": 24,
      "max": [
        0.4892280101776123,
        -0.58978599309921265,
        0.37348198890686035
      ],
      "min": [
        -0.4892280101776123,
        -0.75966799259185791,
        -0.23020899295806885
      ],
      "type": "VEC3"
    },
    {
      "bufferView": 2,
      "byteOffset": 43584,
      "componentType": 5126,
      "count": 24,
      "max": [
        1,
        1,
        1
      ],
      "min": [
        -1,
        -1,
        -1
      ],
      "type": "VEC3"
    },
    {
      "bufferView": 3,
      "byteOffset": 28864,
      "componentType": 5126,
      "count": 24,
      "max": [
        1,
        1,
        0,
        1
      ],
      "min": [
        -1,
        -1,
        0,
        1
      ],
      "type": "VEC4"
    },
    {
      "bufferView": 1,
      "byteOffset": 14432,
      "componentType": 5126,
      "count": 24,
      "max": [
        0.26822000741958618,
        0.99251002073287964
      ],
      "min": [
        0.023727599531412125,
        0.61914199590682983
      ],
      "type": "VEC2"
    },
    {
      "bufferView": 0,
      "byteOffset": 28512,
      "componentType": 5125,
      "count": 36,
      "max": [
        23
      ],
      "min": [
        0
      ],
      "type": "SCALAR"
    },
    {
      "bufferView": 2,
      "byteOffset": 43872,
      "componentType": 5126,
      "count": 254,
      "max": [
        0.44372200965881348,
        -0.758433997631073,
        0.49938198924064636
      ],
      "min": [
        -0.44384598731994629,
        -1,
        -0.30759799480438232
      ],
      "type": "VEC3"
    },
    {
      "bufferView": 2,
      "byteOffset": 46920,
      "componentType": 5126,
      "count": 254,
      "max": [
        1,
        1,
        1
      ],
      "min": [
        -1,
        -1,
        -1
      ],
      "type": "VEC3"
    },
    {
      "bufferView": 3,
      "byteOffset": 29248,
      "componentType": 5126,
      "count": 254,
      "max": [
        1,
        1,
        1,
        1
      ],
      "min": [
        -1,
        -1,
        -1,
        -1
      ],
      "type": "VEC4"
    },
    {
      "bufferView": 1,
      "byteOffset": 14624,
      "componentType": 5126,
      "count": 254,
      "max": [
        0.71635401248931885,
        0.9340980052947998
      ],
      "min": [
        0.51191401481628418,
        0.73583197593688965
      ],
      "type": "VEC2"
    },
    {
      "bufferView": 0,
      "byteOffset": 28656,
      "componentType": 5125,
      "count": 450,
      "max": [
        253
      ],
      "min": [
        0
      ],
      "type": "SCALAR"
    }
  ],
  "asset": {
    "extras": {
      "author": "Enshin (https://sketchfab.com/enshin)",
      "license": "CC-BY-4.0 (http://creativecommons.org/licenses/by/4.0/)",
      "source": "https://sketchfab.com/3d-models/cockpit-chair-482e559291994570985c1e102aa69f57",
      "title": "Cockpit Chair"
    },
    "generator": "Sketchfab-5.46.0",
    "version": "2.0"
  },
  "bufferViews": [
    {
      "buffer": 0,
      "byteLength": 30456,
      "byteOffset": 0,
      "name": "floatBufferViews",
      "target": 34963
    },
    {
      "buffer": 0,
      "byteLength": 16656,
      "byteOffset": 30456,
      "byteStride": 8,
      "name": "floatBufferViews",
      "target": 34962
    },
    {
      "buffer": 0,
      "byteLength": 49968,
      "byteOffset": 47112,
      "byteStride": 12,
      "name": "floatBufferViews",
      "target": 34962
    },
    {
      "buffer": 0,
      "byteLength": 33312,
      "byteOffset": 97080,
      "byteStride": 16,
      "name": "floatBufferViews",
      "target": 34962
    }
  ],
  "buffers": [
    {
      "byteLength": 130392,
      "uri": "scene.bin"
    }
  ],
  "images": [
    {
      "uri": "textures/chear_texture_baseColor.jpeg"
    },
    {
      "uri": "textures/chear_texture_metallicRoughness.png"
    },
    {
      "uri": "textures/chear_texture_normal.png"
    }
  ],
  "materials": [
    {
      "doubleSided": true,
      "name": "chear_texture",
      "normalTexture": {
        "index": 2,
        "scale": 1,
        "texCoord": 0
      },
      "pbrMetallicRoughness": {
        "baseColorFactor": [
          1,
          1,
          1,
          1
        ],
        "baseColorTexture": {
          "index": 0,
          "texCoord": 0
        },
        "metallicFactor": 1,
        "metallicRoughnessTexture": {
          "index": 1,
          "texCoord": 0
        },
        "roughnessFactor": 1
      }
    }
  ],
  "meshes": [
    {
      "name": "defaultMaterial",
      "primitives": [
        {
          "attributes": {
            "NORMAL": 1,
            "POSITION": 0,
            "TANGENT": 2,
            "TEXCOORD_0": 3
          },
          "indices": 4,
          "material": 0,
          "mode": 4
        }
      ]
    },
    {
      "name": "defaultMaterial",
      "primitives": [
        {
          "attributes": {
            "NORMAL": 6,
            "POSITION": 5,
            "TANGENT": 7,
            "TEXCOORD_0": 8
          },
          "indices": 9,
          "material": 0,
          "mode": 4
        }
      ]
    },
    {
      "name": "defaultMaterial",
      "primitives": [
        {
          "attributes": {
            "NORMAL": 11,
            "POSITION": 10,
            "TANGENT": 12,
            "TEXCOORD_0": 13
          },
          "indices": 14,
          "material": 0,
          "mode": 4
        }
      ]
    },
    {
      "name": "defaultMaterial",
      "primitives": [
        {
          "attributes": {
            "NORMAL": 16,
            "POSITION": 15,
            "TANGENT": 17,
            "TEXCOORD_0": 18
          },
          "indices": 19,
          "material": 0,
          "mode": 4
        }
      ]
    },
    {
      "name": "defaultMaterial",
      "primitives": [
        {
          "attributes": {
            "NORMAL": 21,
            "POSITION": 20,
            "TANGENT": 22,
            "TEXCOORD_0": 23
          },
          "indices": 24,
          "material": 0,
          "mode": 4
        }
      ]
    },
    {
      "name": "defaultMaterial",
      "primitives": [
        {
          "attributes": {
            "NORMAL": 26,
            "POSITION": 25,
            "TANGENT": 27,
            "TEXCOORD_0": 28
          },
          "indices": 29,
          "material": 0,
          "mode": 4
        }
      ]
    },
    {
      "name": "defaultMaterial",
      "primitives": [
        {
          "attributes": {
            "NORMAL": 31,
            "POSITION": 30,
            "TANGENT": 32,
            "TEXCOORD_0": 33
          },
          "indices": 34,
          "material": 0,
          "mode": 4
        }
      ]
    }
  ],
  "nodes": [
    {
      "children": [
        1
      ],
      "name": "RootNode (gltf orientation matrix)",
      "rotation": [
        -0.70710678118654746,
        -0,
        -0,
        0.70710678118654757
      ]
    },
    {
      "children": [
        2
      ],
      "name": "RootNode (model correction matrix)"
    },
    {
      "children": [
        3,
        5,
        7,
        9,
        11,
        13,
        15
      ],
      "matrix": [
        1,
        0,
        0,
        0,
        0,
        -4.3711390063094768e-08,
        0.999999999999999,
        0,
        0,
        -0.999999999999999,
        -4.3711390063094768e-08,
        0,
        0,
        0,
        0,
        1
      ],
      "name": "Collada visual scene group"
    },
    {
      "children": [
        4
      ],
      "name": "Plane"
    },
    {
      "mesh": 0,
      "name": "defaultMaterial"
    },
    {
      "children": [
        6
      ],
      "name": "BezierCurve"
    },
    {
      "mesh": 1,
      "name": "defaultMaterial"
    },
    {
      "children": [
        8
      ],
      "name": "BezierCurve.003"
    },
    {
      "mesh": 2,
      "name": "defaultMaterial"
    },
    {
      "children": [
        10
      ],
      "name": "Plane.001"
    },
    {
      "mesh": 3,
      "name": "defaultMaterial"
    },
    {
      "children": [
        12
      ],
      "name": "Cube"
    },
    {
      "mesh": 4,
      "name": "defaultMaterial"
    },
    {
      "children": [
        14
      ],
      "name": "Cube.002"
    },
    {
      "mesh": 5,
      "name": "defaultMaterial"
    },
    {
      "children": [
        16
      ],
      "name": "Cube.003"
    },
    {
      "mesh": 6,
      "name": "defaultMaterial"
    }
  ],
  "samplers": [
    {
      "magFilter": 9729,
      "minFilter": 9987,
      "wrapS": 10497,
      "wrapT": 10497
    }
  ],
  "scene": 0,
  "scenes": [
    {
      "name": "OSG_Scene",
      "nodes": [
        0
      ]
    }
  ],
  "textures": [
    {
      "sampler": 0,
      "source": 0
    },
    {
      "sampler": 0,
      "source": 1
    },
    {
      "sampler": 0,
      "source": 2
    }
  ]
}

