{
  "accessors": [
    {
      "bufferView": 1,
      "componentType": 5126,
      "count": 18560,
      "max": [
        104.40503692626953,
        54.641544342041016,
        50.693027496337891
      ],
      "min": [
        -24.697212219238281,
        -55.345924377441406,
        -50.693023681640625
      ],
      "type": "VEC3"
    },
    {
      "bufferView": 1,
      "byteOffset": 222720,
      "componentType": 5126,
      "count": 18560,
      "max": [
        1,
        1,
        1
      ],
      "min": [
        -1,
        -1,
        -1
      ],
      "type": "VEC3"
    },
    {
      "bufferView": 0,
      "componentType": 5125,
      "count": 111360,
      "max": [
        18559
      ],
      "min": [
        0
      ],
      "type": "SCALAR"
    },
    {
      "bufferView": 1,
      "byteOffset": 445440,
      "componentType": 5126,
      "count": 6927,
      "max": [
        71.813713073730469,
        31.124866485595703,
        45.817916870117188
      ],
      "min": [
        -19.82209587097168,
        -50.345947265625,
        -45.817913055419922
      ],
      "type": "VEC3"
    },
    {
      "bufferView": 1,
      "byteOffset": 528564,
      "componentType": 5126,
      "count": 6927,
      "max": [
        1,
        1,
        1
      ],
      "min": [
        -1,
        -1,
        -1
      ],
      "type": "VEC3"
    },
    {
      "bufferView": 0,
      "byteOffset": 445440,
      "componentType": 5125,
      "count": 39546,
      "max": [
        6926
      ],
      "min": [
        0
      ],
      "type": "SCALAR"
    }
  ],
  "asset": {
    "extras": {
      "author": "Kafu Design (https://sketchfab.com/kufatschgu)",
      "license": "CC-BY-4.0 (http://creativecommons.org/licenses/by/4.0/)",
      "source": "https://sketchfab.com/3d-models/coffee-mug-kaffeetasse-bfac941dac7647678ad1cc26a102ad05",
      "title": "Coffee Mug / Kaffeetasse"
    },
    "generator": "Sketchfab-7.37.0",
    "version": "2.0"
  },
  "bufferViews": [
    {
      "buffer": 0,
      "byteLength": 603624,
      "byteOffset": 0,
      "name": "floatBufferViews",
      "target": 34963
    },
    {
      "buffer": 0,
      "byteLength": 611688,
      "byteOffset": 603624,
      "byteStride": 12,
      "name": "floatBufferViews",
      "target": 34962
    }
  ],
  "buffers": [
    {
      "byteLength": 1215312,
      "uri": "scene.bin"
    }
  ],
  "materials": [
    {
      "doubleSided": true,
      "emissiveFactor": [
        0,
        0,
        0
      ],
      "name": "02_-_Default",
      "pbrMetallicRoughness": {
        "baseColorFactor": [
          1,
          1,
          1,
          1
        ],
        "metallicFactor": 0,
        "roughnessFactor": 0.13520832061767574
      }
    },
    {
      "alphaMode": "BLEND",
      "doubleSided": true,
      "emissiveFactor": [
        0,
        0,
        0
      ],
      "name": "09_-_Default",
      "pbrMetallicRoughness": {
        "baseColorFactor": [
          0.035294100000000002,
          0.0078431400000000002,
          0,
          0
        ],
        "metallicFactor": 0,
        "roughnessFactor": 0.11020832061767583
      }
    }
  ],
  "meshes": [
    {
      "name": "Rectangle001_02 - Default_0",
      "primitives": [
        {
          "attributes": {
            "NORMAL": 1,
            "POSITION": 0
          },
          "indices": 2,
          "material": 0,
          "mode": 4
        }
      ]
    },
    {
      "name": "Rectangle002_09 - Default_0",
      "primitives": [
        {
          "attributes": {
            "NORMAL": 4,
            "POSITION": 3
          },
          "indices": 5,
          "material": 1,
          "mode": 4
        }
      ]
    }
  ],
  "nodes": [
    {
      "children": [
        1
      ],
      "name": "RootNode (gltf orientation matrix)",
      "rotation": [
        -0.70710678118654746,
        -0,
        -0,
        0.70710678118654757
      ]
    },
    {
      "children": [
        2
      ],
      "name": "RootNode (model correction matrix)"
    },
    {
      "children": [
        3
      ],
      "matrix": [
        1,
        0,
        0,
        0,
        0,
        0,
        1,
        0,
        0,
        -1,
        0,
        0,
        0,
        0,
        0,
        1
      ],
      "name": "657c156342d14d918dfc644f1cc0b3ad.fbx"
    },
    {
      "children": [
        4,
        7
      ],
      "name": "RootNode"
    },
    {
      "children": [
        5
      ],
      "matrix": [
        0.97629600278605788,
        1.3253110935381761e-17,
        -0.21643963348695097,
        0,
        3.5262493227122597e-08,
        0.99999999999998668,
        1.5905881304885366e-07,
        0,
        0.21643963348694809,
        -1.6292068449740519e-07,
        0.97629600278604489,
        0,
        0.028470993041992188,
        56,
        -2.2909534891368821e-07,
        1
      ],
      "name": "Rectangle001"
    },
    {
      "children": [
        6
      ],
      "matrix": [
        1,
        0,
        -0,
        0,
        0,
        1,
        0,
        0,
        0,
        0,
        1,
        0,
        -25.995809555053711,
        0,
        0,
        1
      ],
      "name": ""
    },
    {
      "mesh": 0,
      "name": "Rectangle001_02 - Default_0"
    },
    {
      "children": [
        8
      ],
      "matrix": [
        0.99058697258677053,
        -3.4517180009354443e-15,
        -0.21960786279458749,
        0,
        3.4753782999472227e-08,
        0.99999999999998712,
        1.5676415588028415e-07,
        0,
        0.21960786279458466,
        -1.6292073459211221e-07,
        0.99058697258675776,
        0,
        0.028470993041992188,
        56.326999664306641,
        -6.4593459683237597e-06,
        1
      ],
      "name": "Rectangle002"
    },
    {
      "children": [
        9
      ],
      "matrix": [
        1,
        0,
        -0,
        0,
        0,
        1,
        0,
        0,
        0,
        0,
        1,
        0,
        -25.995809555053711,
        0,
        0,
        1
      ],
      "name": ""
    },
    {
      "mesh": 1,
      "name": "Rectangle002_09 - Default_0"
    }
  ],
  "scene": 0,
  "scenes": [
    {
      "name": "OSG_Scene",
      "nodes": [
        0
      ]
    }
  ]
}

